<svg xmlns="http://www.w3.org/2000/svg" version="1.1" xmlns:xlink="http://www.w3.org/1999/xlink" xmlns:svgjs="http://svgjs.dev/svgjs" width="1500" height="1500" viewBox="0 0 1500 1500"><rect width="1500" height="1500" fill="#ffffff"></rect><g transform="matrix(0.6666666666666666,0,0,0.6666666666666666,249.3947470014764,567.6730235967369)"><svg viewBox="0 0 396 144" data-background-color="#ffffff" preserveAspectRatio="xMidYMid meet" height="545" width="1500" xmlns="http://www.w3.org/2000/svg" xmlns:xlink="http://www.w3.org/1999/xlink"><g id="tight-bounds" transform="matrix(1,0,0,1,0.24010660419497754,0.26170073964189555)"><svg viewBox="0 0 395.52 143.47634042637364" height="143.47634042637364" width="395.52"><g><svg viewBox="0 0 395.52 143.47634042637364" height="143.47634042637364" width="395.52"><g transform="matrix(1,0,0,1,0,94.06925064955831)"><svg viewBox="0 0 395.52 49.407089776815326" height="49.407089776815326" width="395.52"><g id="textblocktransform"><svg viewBox="0 0 395.52 49.407089776815326" height="49.407089776815326" width="395.52" id="textblock"><g><svg viewBox="0 0 395.52 49.407089776815326" height="49.407089776815326" width="395.52"><g transform="matrix(1,0,0,1,0,0)"><svg width="395.52" viewBox="3.3233799999999993 -31.592210000000005 352.46643000000006 44.028980000000004" height="49.407089776815326" data-palette-color="#31302e"><path d="M30.701 9.548l-4.382-8.557-16.24 1.713-2.489 9.283-4.267 0.45 9.43-35.093 5.907-0.624 16.546 32.353zM11.109-1.075l13.415-1.415-8.523-16.738zM62.585-27.252l4.275-0.359 2.84 33.79-4.275 0.36-20.347-24.542 2.191 26.068-4.275 0.359-2.84-33.791 4.275-0.359 20.347 24.542zM81.193 5.463l-2.244-33.836 4.28-0.284 2.244 33.836zM130.908-30.928l1.571 33.873-4.285 0.199-1.4-30.178-9.649 30.69-4.675 0.217-12.628-29.456 1.391 29.977-4.286 0.199-1.571-33.873 7.492-0.348 11.762 27.405 8.926-28.364zM163.926-27.503l-15.926 0.332 0.223 10.718 14.857-0.31 0.081 3.899-14.856 0.31 0.231 11.107 15.927-0.332 0.085 4.089-20.216 0.422-0.707-33.903 20.216-0.421zM211.605-31.352l4.289 0.042-0.331 33.909-4.29-0.042 0.154-15.689-18.22-0.178-0.153 15.689-4.29-0.042 0.332-33.908 4.289 0.041-0.139 14.23 18.22 0.178zM250.823 3.871l-3.133-9.089-16.319-0.592-3.773 8.839-4.287-0.155 14.28-33.415 5.936 0.216 11.823 34.36zM232.922-9.406l13.481 0.489-6.08-17.772zM284.895-28.21l4.283 0.246-14.354 33.142-5.351-0.308-10.456-34.566 4.523 0.26 9.03 29.746zM317.434-21.711l-15.884-1.208-0.813 10.689 14.817 1.127-0.295 3.888-14.818-1.126-0.842 11.078 15.884 1.207-0.31 4.079-20.162-1.533 2.571-33.812 20.162 1.532zM351.52-22.479l4.27 0.419-3.312 33.748-4.269-0.419-15.578-27.814-2.555 26.035-4.27-0.419 3.312-33.748 4.269 0.419 15.579 27.814z" opacity="1" transform="matrix(1,0,0,1,0,0)" fill="#31302e" class="wordmark-text-0" data-fill-palette-color="primary" id="text-0"></path></svg></g></svg></g></svg></g></svg></g><g transform="matrix(1,0,0,1,157.7896643705564,0)"><svg viewBox="0 0 79.94067125888719 79.94067125888719" height="79.94067125888719" width="79.94067125888719"><g><svg xmlns="http://www.w3.org/2000/svg" xmlns:xlink="http://www.w3.org/1999/xlink" version="1.1" x="0" y="0" viewBox="0.225 0.225 99.55000000000001 99.55000000000001" enable-background="new 0 0 100 100" xml:space="preserve" height="79.94067125888719" width="79.94067125888719" class="icon-icon-0" data-fill-palette-color="accent" id="icon-0"><path d="M50 0.225C22.514 0.225 0.225 22.514 0.225 50 0.225 77.496 22.514 99.775 50 99.775 77.496 99.775 99.775 77.496 99.775 50 99.775 22.514 77.496 0.225 50 0.225M28.93 30.102L32.782 22.295 36.635 30.102 45.25 31.354 39.016 37.43 40.488 46.01 32.782 41.959 25.077 46.01 26.548 37.43 20.315 31.354zM43.488 77.51L35.782 73.459 28.077 77.51 29.548 68.93 23.315 62.854 31.93 61.602 35.782 53.795 39.635 61.602 48.25 62.854 42.016 68.93zM61.43 30.102L65.283 22.295 69.136 30.102 77.751 31.354 71.517 37.43 72.99 46.01 65.284 41.959 57.578 46.01 59.051 37.43 52.817 31.354zM75.988 77.51L68.282 73.459 60.576 77.51 62.049 68.93 55.815 62.854 64.43 61.602 68.283 53.795 72.136 61.602 80.751 62.854 74.517 68.93z" fill="#8a8d56" data-fill-palette-color="accent"></path></svg></g></svg></g><g></g></svg></g><defs></defs></svg><rect width="395.52" height="143.47634042637364" fill="none" stroke="none" visibility="hidden"></rect></g></svg></g></svg>